<?xml version="1.0" standalone="no"?>
<!DOCTYPE svg PUBLIC "-//W3C//DTD SVG 20010904//EN"
 "http://www.w3.org/TR/2001/REC-SVG-20010904/DTD/svg10.dtd">
<svg version="1.0" xmlns="http://www.w3.org/2000/svg"
 width="482.000000pt" height="378.000000pt" viewBox="0 0 482.000000 378.000000"
 preserveAspectRatio="xMidYMid meet">

<g transform="translate(0.000000,378.000000) scale(0.100000,-0.100000)"
fill="#000000" stroke="none">
<path d="M2818 3641 c-112 -114 -310 -333 -305 -337 2 -2 40 -30 85 -61 44
-32 106 -80 137 -107 l56 -49 54 59 54 59 123 -125 c68 -69 215 -219 326 -334
199 -205 203 -209 222 -190 73 76 210 231 210 238 0 5 -59 70 -132 145 -73 75
-200 206 -283 291 -82 85 -223 230 -311 321 l-162 167 -74 -77z"/>
<path d="M4530 3384 c-290 -77 -619 -161 -657 -169 -18 -4 -33 -12 -33 -18 0
-6 53 -64 117 -129 l116 -117 -124 -133 c-68 -73 -160 -171 -204 -218 -190
-201 -248 -263 -375 -400 -221 -239 -242 -261 -318 -341 l-72 -76 -230 231
-230 231 -73 -75 c-39 -42 -189 -201 -332 -355 -143 -154 -304 -325 -357 -380
-53 -55 -106 -111 -118 -125 -39 -46 -434 -463 -501 -531 -120 -120 -268 -169
-405 -135 -124 30 -222 95 -284 188 -59 88 -75 151 -74 283 2 175 43 260 218
445 50 52 124 131 165 175 41 44 115 122 164 174 l90 94 86 -89 c47 -49 177
-182 290 -297 l205 -207 103 107 c56 60 105 116 108 126 8 22 -10 42 -248 287
-100 102 -210 215 -246 252 l-64 67 38 43 c36 41 98 107 412 443 144 154 205
199 312 227 115 30 213 20 317 -33 133 -67 219 -175 256 -324 20 -77 21 -176
2 -255 -5 -23 9 -40 105 -135 62 -61 116 -111 121 -113 25 -9 85 196 96 329
17 195 -61 432 -193 592 -86 104 -240 204 -383 249 -63 19 -96 23 -210 23
-151 0 -226 -17 -350 -80 -116 -58 -183 -119 -486 -447 -165 -177 -306 -329
-314 -338 -31 -31 -548 -589 -630 -678 -46 -51 -104 -120 -128 -155 -192 -274
-197 -678 -13 -944 148 -215 367 -333 621 -336 169 -2 320 43 446 132 97 68
108 79 539 541 121 129 258 276 305 325 48 50 150 158 227 240 77 83 150 159
162 169 l21 19 193 -189 c211 -208 269 -264 278 -264 3 0 180 185 395 412 604
640 666 705 859 906 l90 94 123 -128 c71 -74 126 -123 131 -118 5 5 37 164 71
354 34 190 73 399 86 465 29 146 30 165 7 164 -10 0 -110 -25 -223 -55z"/>
<path d="M2040 2846 c-111 -32 -154 -68 -400 -336 -63 -69 -144 -155 -179
-192 l-64 -68 19 -22 c77 -90 103 -106 121 -74 9 16 331 363 415 449 32 32 73
64 93 72 41 18 122 19 162 4 79 -31 82 -31 129 13 24 22 44 46 44 53 0 19 -42
52 -100 79 -68 31 -175 41 -240 22z"/>
<path d="M4075 2294 c-55 -59 -108 -118 -118 -130 -17 -22 -16 -23 113 -157
71 -74 130 -138 130 -142 0 -8 -43 -55 -190 -210 -42 -44 -114 -120 -160 -170
-46 -49 -165 -175 -265 -280 -99 -104 -218 -230 -265 -280 -47 -49 -128 -135
-181 -190 -52 -55 -117 -122 -143 -150 l-47 -50 -369 375 -370 375 -32 -36
c-18 -21 -70 -78 -116 -128 l-83 -90 418 -422 c230 -231 420 -424 423 -428 3
-3 35 -34 71 -69 l67 -63 33 33 c19 19 75 76 124 129 50 52 128 135 175 184
47 50 205 216 350 370 145 154 307 325 359 380 288 301 666 709 669 721 4 17
-71 100 -320 357 l-173 178 -100 -107z"/>
<path d="M964 1788 c-54 -60 -239 -260 -330 -358 -74 -80 -108 -137 -128 -215
-22 -81 -20 -160 4 -238 21 -67 61 -127 85 -127 18 0 85 77 85 98 0 9 -7 39
-15 66 -22 72 -19 133 10 194 22 48 88 123 350 401 123 130 117 113 54 177
-29 29 -56 54 -60 54 -3 0 -28 -24 -55 -52z"/>
</g>
</svg>
